<?xml version="1.0" encoding="UTF-8"?>
<svg width="171px" height="185px" viewBox="0 0 171 185" version="1.1" xmlns="http://www.w3.org/2000/svg" xmlns:xlink="http://www.w3.org/1999/xlink">
    <!-- Generator: Sketch 54 (76480) - https://sketchapp.com -->
    <title>Cog</title>
    <desc>Created with Sketch.</desc>
    <g id="Cog" stroke="none" stroke-width="1" fill="none" fill-rule="evenodd">
        <g id="_ionicons_svg_md-settings" transform="translate(0.000000, 7.000000)" fill="#4899CD" fill-rule="nonzero">
            <path d="M149.961335,93.5000409 C150.394502,90.9520719 150.394502,87.9758316 150.394502,85 C150.394502,82.0241684 149.961335,79.4757907 149.961335,76.4999591 L168.21442,62.475709 C169.955261,61.2015202 170.38802,59.0769186 169.084841,56.9514998 L151.697272,27.6247242 C150.827261,25.9230814 148.220903,25.0767552 146.480062,25.9230814 L124.745704,34.4235309 C120.398505,31.0243318 115.18579,28.0480916 109.968988,25.9230814 L106.925377,3.39919903 C106.49221,1.7016428 104.751778,0 102.578179,0 L67.8030423,0 C65.6298517,0 63.8894194,1.7016428 63.4562524,3.39919903 L59.9794743,25.9230814 C54.7622639,28.0480916 49.982307,31.0239232 45.1982637,34.4235309 L23.4639055,25.9230814 C21.2903062,25.0767552 19.1167069,25.9230814 18.2466951,27.6247242 L0.859126865,56.9519084 C-0.00679847098,58.649056 0.425551225,61.2015202 1.72913868,62.4761177 L20.4211117,76.4999591 C20.4211117,79.4757907 19.9879447,82.0241684 19.9879447,85 C19.9879447,87.9758316 20.4211117,90.5242093 20.4211117,93.5000409 L2.1676181,107.524291 C0.426777169,108.79848 -0.00557252666,110.923081 1.29719764,113.0485 L18.6847659,142.375276 C19.5551864,144.076919 22.161544,144.923245 23.9019763,144.076919 L45.6367431,135.576469 C49.983533,138.975668 55.1966569,141.951908 60.4134586,144.076919 L63.8902367,166.600801 C64.3270815,168.725811 66.0634273,170 68.2370266,170 L103.012163,170 C105.185762,170 106.926195,168.298357 107.359362,166.600801 L110.840226,144.076919 C116.05335,141.951908 120.837393,138.976077 125.616942,135.576469 L147.351709,144.076919 C149.524899,144.923245 151.698498,144.076919 152.568919,142.375276 L169.956487,113.048092 C170.826499,111.350944 170.389654,108.79848 169.086067,107.523882 L149.961335,93.5000409 Z M85.1910192,114.750143 C68.2366179,114.750143 54.7630812,101.577123 54.7630812,85 C54.7630812,68.422877 68.2366179,55.249857 85.1910192,55.249857 C102.14542,55.249857 115.619366,68.422877 115.619366,85 C115.619366,101.577123 102.14542,114.750143 85.1910192,114.750143 Z" id="Shape"></path>
        </g>
    </g>
</svg>